<svg width="689" height="689" viewBox="0 0 689 689" fill="none" xmlns="http://www.w3.org/2000/svg">
<path d="M252.369 218.922C250.211 213.431 247.245 208.294 243.569 203.68C228.644 184.008 216.079 162.86 203.981 141.412C198.413 131.527 200.298 124.915 209.318 118.38C221.711 109.396 235.692 103.782 250.239 99.2765C256.586 97.3166 261.572 98.8178 265.205 103.973C269.543 110.144 273.485 116.656 277.46 123.03C288.169 140.293 298.885 157.571 309.594 174.833C310.505 175.984 311.538 177.033 312.675 177.962C325.521 178.739 334.642 166.902 347.199 167.155C355.036 171.182 357.824 177.671 357.312 186.005C356.97 191.675 357.175 197.37 356.701 203.023C354.123 232.747 353.369 262.601 354.442 292.418C354.556 299.973 354.23 307.528 353.464 315.045C353.381 316.733 352.654 318.326 351.434 319.495C350.213 320.665 348.591 321.323 346.901 321.334C341.722 321.791 336.53 322.218 331.826 318.972C327.924 316.326 323.553 314.409 319.5 312.004C302.781 302.109 285.923 292.486 269.579 282.114C256.33 273.863 243.712 264.671 230.809 255.829C229.311 254.675 227.96 253.34 226.788 251.854C222.528 246.958 222.18 241.394 226.727 236.546C230.066 233.224 233.77 230.29 237.767 227.798C242.321 224.701 247.223 222.014 252.369 218.922ZM245.391 243.526C248.155 248.257 252.119 252.174 256.882 254.883C266.606 260.707 276.218 266.739 285.906 272.65C300.847 281.705 315.722 290.859 330.77 299.87C333.003 301.202 335.799 301.604 338.949 302.646C338.624 282.669 338.182 263.796 338.124 244.943C338.066 226.09 341.673 207.531 340.536 187.496C337.557 187.992 334.623 188.725 331.762 189.688C327.456 191.61 323.45 194.213 319.154 196.202C311.348 199.785 308.109 199.136 303.524 192.281C290.643 173.052 277.926 153.685 265.371 134.179C261.546 128.298 258.212 122.088 252.571 117.226C240.293 120.508 230.401 127.618 220.315 134.432C220.623 135.984 221.098 137.497 221.732 138.946C236.03 161.865 250.236 184.733 264.872 207.388C266.513 209.669 267.635 212.282 268.157 215.043C268.68 217.804 268.59 220.647 267.895 223.37C267.275 226.39 265.96 229.225 264.055 231.649C262.149 234.073 259.704 236.02 256.915 237.334C253.263 239.236 249.656 241.245 245.391 243.526Z" fill="#0D192B"/>
</svg>
