<svg width="181" height="181" viewBox="0 0 181 181" fill="none" xmlns="http://www.w3.org/2000/svg">
<path d="M150.553 90.5C163.743 74.8774 168.913 59.4585 162.753 48.7852C156.594 38.1118 140.654 34.8764 120.529 38.4851C113.595 19.2539 102.831 7.07031 90.5059 7.07031C78.1526 7.07031 67.3718 19.3104 60.4373 38.6096C58.4689 38.2532 56.4157 37.7328 54.5152 37.5066C36.5849 35.3912 23.6943 39.3732 18.2586 48.7852C12.823 58.1972 15.7925 71.3536 26.6242 85.8279C27.795 87.3947 29.2996 88.9389 30.6232 90.5C29.2996 92.0611 27.795 93.6053 26.6242 95.1721C15.7925 109.646 12.8286 122.803 18.2586 132.215C23.6603 139.557 32.2691 144.274 41.9809 144.274C43.2309 144.274 44.4584 144.195 45.6688 144.048L45.5274 144.065C48.7119 144.053 51.8284 143.85 54.8941 143.465L54.5208 143.505C56.4213 143.278 58.4745 142.752 60.4429 142.396C67.3775 161.701 78.1583 173.941 90.5115 173.941C102.837 173.941 113.6 161.757 120.535 142.532C124.947 143.397 130.049 143.923 135.258 143.969H135.298C136.384 144.11 137.634 144.189 138.906 144.189C148.641 144.189 157.284 139.523 162.719 132.3L162.776 132.226C168.935 121.553 163.754 106.134 150.564 90.5113L150.553 90.5ZM135.4 45.5498C145.428 45.5498 152.612 48.1743 155.406 53.0273C159.235 59.6565 155.146 71.3083 144.653 84.0745C139.41 78.7972 133.788 73.9159 127.82 69.4701L127.424 69.1873C126.446 60.6689 124.93 53.0273 122.854 45.6177L123.103 46.6641C126.779 45.991 131.027 45.5894 135.366 45.5498H135.4ZM105.348 116.208C100.399 119.07 95.4155 121.575 90.4493 123.855C85.6132 121.638 80.6697 119.109 75.6526 116.208C70.7034 113.351 66.0426 110.291 61.5855 107.129C61.0877 101.835 60.8049 96.292 60.8049 90.5C60.8049 84.708 61.0877 79.1592 61.5855 73.865C66.0369 70.7031 70.7034 67.6374 75.6526 64.781C80.6866 61.8737 85.6415 59.3793 90.4889 57.1564C95.4438 59.4302 100.41 61.9303 105.348 64.781C110.393 67.694 115.054 70.7371 119.409 73.8367C119.913 79.1422 120.196 84.6967 120.196 90.5C120.196 96.3033 119.913 101.858 119.409 107.158C115.054 110.257 110.393 113.295 105.348 116.208ZM117.916 118.448C116.983 124.081 115.891 128.844 114.556 133.499L114.788 132.566C109.104 131.106 104.449 129.596 99.9179 127.843L100.823 128.148C103.753 126.655 106.688 125.241 109.596 123.566C112.469 121.909 115.224 120.19 117.916 118.448ZM79.9796 128.227C76.4218 129.653 71.8403 131.151 67.1569 132.407L66.2236 132.616C65.0924 128.821 63.9894 123.974 63.1579 119.041L63.0505 118.261C65.8107 120.054 68.4974 121.887 71.4047 123.566C74.2668 125.218 77.1232 126.772 79.9739 128.227H79.9796ZM52.592 100.268C48.6949 97.0782 45.1937 93.8881 41.8678 90.517L41.8508 90.5C45.188 87.1176 48.6892 83.9218 52.3545 80.9183L52.592 80.7317C52.428 83.9331 52.3205 87.1854 52.3205 90.5C52.3205 93.8146 52.428 97.0612 52.592 100.268ZM71.4104 57.4336C68.5031 59.1135 65.8107 60.9461 63.0561 62.7391C63.995 57.0263 65.1037 52.1789 66.4612 47.4446L66.2293 48.3836C71.8516 49.8542 76.4388 51.3588 80.9129 53.0952L80.0022 52.7841C77.1458 54.2434 74.2781 55.7763 71.4104 57.4336ZM100.772 52.8294C104.42 51.387 109.092 49.8881 113.872 48.6494L114.788 48.4458C115.897 52.1619 116.983 56.9245 117.809 61.7719L117.916 62.5525C115.224 60.8103 112.463 59.0908 109.59 57.4336C106.671 55.748 103.719 54.3283 100.772 52.8237V52.8294ZM128.414 80.8108C132.26 83.9727 135.722 87.1402 139.003 90.483L139.02 90.5C135.716 93.8598 132.26 97.0217 128.64 100.003L128.414 100.183C128.578 97.0047 128.68 93.7863 128.68 90.5C128.68 87.2137 128.578 83.9897 128.414 80.8108ZM90.5002 15.5547C98.1758 15.5547 106.315 24.797 112.135 40.346C103.617 42.6029 96.3714 45.1934 89.4142 48.2987L90.3588 47.9198C84.448 45.2217 77.3042 42.6368 69.9341 40.5949L68.8707 40.346C74.691 24.797 82.8247 15.5547 90.5002 15.5547ZM25.5948 53.0273C29.639 48.2308 35.6516 45.2048 42.3712 45.2048C43.4685 45.2048 44.5489 45.2839 45.6009 45.4423L45.4821 45.4253C48.3216 45.4367 51.1044 45.6177 53.8364 45.9627L53.5027 45.9287C54.9054 46.0984 56.4326 46.5057 57.875 46.7489C56.048 53.1292 54.5321 60.7934 53.6271 68.6442L53.5649 69.3343C47.1847 74.046 41.551 78.8877 36.2964 84.1197L36.302 84.1141C35.3688 82.9885 34.2545 81.8686 33.4117 80.743C24.8651 69.323 22.0144 59.2209 25.5948 53.0273ZM53.5027 135.066C39.3564 136.745 29.1695 134.161 25.5948 127.973C22.0144 121.773 24.8595 111.677 33.406 100.257C34.2488 99.1314 35.3631 98.0115 36.2964 96.8859C41.5454 102.107 47.179 106.954 53.1464 111.372L53.5593 111.66C54.5265 120.201 56.0424 127.865 58.1239 135.292L57.875 134.245C56.4326 134.489 54.9055 134.896 53.5084 135.066H53.5027ZM90.5002 165.445C82.8247 165.445 74.6854 156.203 68.8651 140.654C77.2929 138.358 84.4311 135.778 91.3034 132.696L90.3419 133.08C96.3601 135.812 103.606 138.397 111.089 140.422L112.13 140.66C106.309 156.209 98.1701 165.445 90.5002 165.445ZM155.417 127.973C151.576 134.63 139.495 137.057 123.114 134.313C124.935 127.961 126.451 120.325 127.362 112.508L127.43 111.813C133.793 107.084 139.421 102.203 144.653 96.9312L144.664 96.9198C155.151 109.686 159.246 121.338 155.423 127.967L155.417 127.973ZM90.5002 74.9453C81.9084 74.9453 74.9455 81.9082 74.9455 90.5C74.9455 99.0918 81.9084 106.055 90.5002 106.055C99.0921 106.055 106.055 99.0918 106.055 90.5C106.044 81.9138 99.0864 74.9566 90.5002 74.9453ZM90.5002 97.5703C86.5974 97.5703 83.4299 94.4028 83.4299 90.5C83.4299 86.5972 86.5974 83.4297 90.5002 83.4297C94.403 83.4297 97.5705 86.5972 97.5705 90.5C97.5649 94.4028 94.403 97.5647 90.5002 97.5703Z" fill="black"/>
</svg>
