<svg width="119" height="127" viewBox="0 0 119 127" fill="none" xmlns="http://www.w3.org/2000/svg">
<path d="M61.6961 102.379C61.5959 102.379 61.4935 102.364 61.3953 102.336C61.2199 102.281 61.0629 102.179 60.9413 102.042C60.8197 101.904 60.738 101.736 60.7051 101.556C60.0288 97.8354 58.1138 91.53 55.8565 90.4508C55.6161 90.3347 55.4315 90.1284 55.3431 89.877C55.2546 89.6255 55.2695 89.3493 55.3845 89.1088C55.5006 88.8686 55.7074 88.6842 55.9595 88.5959C56.2117 88.5076 56.4886 88.5227 56.7297 88.6379C59.7496 90.0861 61.5388 96.1325 62.2899 99.3147C74.0891 86.6407 68.755 78.597 68.6978 78.5146C68.6225 78.4062 68.5693 78.284 68.5413 78.1551C68.5134 78.0261 68.5113 77.8929 68.535 77.7632C68.5588 77.6334 68.608 77.5095 68.6798 77.3988C68.7516 77.288 68.8447 77.1925 68.9536 77.1177C69.4039 76.8037 70.0389 76.9137 70.3535 77.3728C70.6347 77.777 77.0721 87.4652 62.4082 102.086C62.3147 102.179 62.2036 102.253 62.0815 102.303C61.9593 102.354 61.8283 102.38 61.6961 102.379ZM39.262 73.4487C39.0876 73.4484 38.9162 73.4031 38.7646 73.3171C38.6129 73.2312 38.4862 73.1075 38.3966 72.9582C36.9279 70.4903 29.9204 68.7402 27.3446 68.2733C27.1634 68.2404 26.9947 68.1586 26.8568 68.0369C26.7188 67.9151 26.6169 67.758 26.5621 67.5826C26.5076 67.4078 26.502 67.2214 26.5461 67.0436C26.5901 66.8659 26.682 66.7036 26.8118 66.5742C41.4719 51.9431 51.1828 58.3585 51.586 58.641C51.6948 58.7159 51.7878 58.8115 51.8595 58.9223C51.9312 59.033 51.9804 59.1568 52.0042 59.2866C52.0279 59.4163 52.0258 59.5495 51.9979 59.6784C51.9701 59.8073 51.917 59.9295 51.8418 60.038C51.5271 60.4951 50.9021 60.6051 50.4458 60.2969C50.0997 60.0596 42.1916 54.9939 29.5884 66.692C32.6713 67.4141 38.4459 69.1049 40.1271 71.9302C40.1949 72.0435 40.2396 72.169 40.2588 72.2996C40.2779 72.4302 40.271 72.5633 40.2384 72.6912C40.2059 72.8192 40.1484 72.9394 40.0692 73.0452C39.99 73.1509 39.8907 73.24 39.7769 73.3073C39.6209 73.3992 39.4431 73.4479 39.262 73.4487ZM19.289 111C18.7818 111 18.4634 110.788 18.2844 110.611C16.0095 108.34 28.1234 95.1123 28.2513 94.9827C29.7731 93.4682 32.4253 93.4682 33.9474 94.9867C34.3222 95.3583 34.6192 95.8003 34.8214 96.2873C35.0236 96.7743 35.1268 97.2965 35.1252 97.8236C35.1252 98.8988 34.7063 99.9072 33.9454 100.665C33.8409 100.771 22.2503 111 19.289 111ZM31.0981 95.8186C30.8339 95.8176 30.5722 95.8688 30.3279 95.9691C30.0836 96.0695 29.8616 96.217 29.6747 96.4033C28.2198 97.855 22.0027 105.499 20.3235 108.575C23.4064 106.9 31.0669 100.696 32.5217 99.2442C32.7099 99.0585 32.8589 98.8373 32.9603 98.5934C33.0616 98.3495 33.1131 98.0879 33.1117 97.8239C33.1129 97.5606 33.0616 97.2998 32.9606 97.0565C32.8597 96.8133 32.7111 96.5926 32.5238 96.4073C32.337 96.2199 32.1148 96.0713 31.8701 95.9702C31.6254 95.8692 31.363 95.8176 31.0981 95.8186Z" fill="black"/>
<path d="M15.6594 117C14.4962 117 13.5859 116.679 12.955 116.05C11.0586 114.149 11.9807 109.875 15.7732 102.986C18.609 97.8324 22.3206 92.6859 24.132 90.8736C25.9956 89.0035 28.4742 87.9759 31.1114 87.9759C33.7486 87.9759 36.2293 89.0035 38.0945 90.8736C41.943 94.7296 41.947 101.004 38.1002 104.86C35.0735 107.889 21.7996 117 15.6594 117ZM31.1112 89.9543C29.0007 89.9543 27.0197 90.7771 25.5286 92.2724C23.8041 93.9959 20.1677 99.0959 17.5036 103.941C13.8712 110.536 13.5358 113.832 14.3515 114.651C14.5984 114.898 15.0383 115.022 15.6594 115.022C20.8352 115.022 33.5362 106.63 36.7037 103.462C39.7804 100.379 39.7765 95.3561 36.698 92.2726C35.2047 90.7771 33.2216 89.9543 31.1112 89.9543ZM51.2776 95.2668C51.0822 95.2669 50.8912 95.2089 50.7287 95.1003C50.5662 94.9916 50.4396 94.8371 50.3649 94.6563C50.2901 94.4755 50.2706 94.2766 50.3088 94.0848C50.347 93.8929 50.4412 93.7167 50.5794 93.5784L105.052 39.0259C109.84 34.2311 111.31 28.9763 111.76 26.2719C112.456 22.0875 111.667 19.0721 110.639 18.0423C109.667 17.0686 106.362 16.547 101.927 17.4356C97.1201 18.3976 92.6582 20.658 89.6856 23.6349L35.2126 78.1894L33.816 76.7909L88.2888 22.2364C91.5296 18.989 96.3602 16.5334 101.542 15.4962C105.307 14.7429 110.047 14.6482 112.036 16.6437C115.153 19.7655 115.404 31.457 106.449 40.4247L51.9762 94.9772C51.8845 95.0691 51.7756 95.1421 51.6557 95.1918C51.5358 95.2415 51.4073 95.2669 51.2776 95.2668Z" fill="black"/>
<path d="M94.7995 23.6554C94.6284 23.6556 94.4601 23.6114 94.3111 23.5271C94.1621 23.4429 94.0374 23.3214 93.9493 23.1746C93.8144 22.9488 93.7744 22.6788 93.8379 22.4235C93.9014 22.1683 94.0633 21.9486 94.2881 21.8124C101.278 17.6013 107.529 17.1558 109.524 19.1575C109.703 19.3449 109.802 19.5951 109.799 19.8545C109.796 20.1139 109.692 20.3619 109.509 20.5453C109.325 20.7288 109.078 20.8331 108.818 20.8359C108.559 20.8388 108.309 20.74 108.122 20.5606C107.245 19.6847 102.322 19.2892 95.3104 23.5137C95.1559 23.606 94.9795 23.6549 94.7995 23.6554ZM42.9238 86.7972C42.7277 86.7971 42.5361 86.7388 42.3732 86.6298C42.2102 86.5208 42.0832 86.3658 42.0081 86.1846C41.9331 86.0034 41.9135 85.8039 41.9517 85.6115C41.9899 85.4191 42.0842 85.2423 42.2227 85.1035L59.0403 68.2752C59.1323 68.1831 59.2416 68.1101 59.3619 68.0602C59.4821 68.0103 59.611 67.9847 59.7412 67.9847C59.8714 67.9847 60.0002 68.0103 60.1205 68.0602C60.2408 68.1101 60.35 68.1831 60.4421 68.2752C60.5341 68.3673 60.6071 68.4767 60.657 68.5971C60.7068 68.7174 60.7324 68.8464 60.7324 68.9767C60.7324 69.1069 60.7068 69.2359 60.657 69.3563C60.6071 69.4766 60.5341 69.586 60.4421 69.6781L43.6245 86.5066C43.5326 86.5989 43.4234 86.672 43.3031 86.7219C43.1829 86.7718 43.0539 86.7973 42.9238 86.7972ZM40.1199 83.9914C39.9897 83.9915 39.8608 83.9659 39.7405 83.916C39.6202 83.8661 39.511 83.7929 39.4191 83.7007L33.8113 78.0887C33.6255 77.9026 33.521 77.6503 33.521 77.3872C33.521 77.1241 33.6255 76.8718 33.8113 76.6858C33.9972 76.4998 34.2494 76.3952 34.5123 76.3952C34.7751 76.3952 35.0273 76.4998 35.2132 76.6858L40.8209 82.2978C40.9597 82.4365 41.0542 82.6133 41.0926 82.8058C41.1309 82.9983 41.1113 83.1978 41.0362 83.3792C40.9612 83.5605 40.834 83.7155 40.6709 83.8245C40.5078 83.9334 40.316 83.9915 40.1199 83.9914ZM51.3391 95.2191C51.2089 95.2193 51.08 95.1937 50.9597 95.1438C50.8394 95.0939 50.7302 95.0207 50.6383 94.9284L45.0266 89.3124C44.8407 89.1264 44.7363 88.8741 44.7363 88.611C44.7363 88.3479 44.8407 88.0956 45.0266 87.9095C45.2125 87.7235 45.4646 87.619 45.7275 87.619C45.9904 87.619 46.2425 87.7235 46.4284 87.9095L52.0401 93.5255C52.1789 93.6642 52.2735 93.841 52.3118 94.0335C52.3501 94.226 52.3305 94.4255 52.2554 94.6069C52.1804 94.7882 52.0532 94.9432 51.8901 95.0522C51.727 95.1612 51.5352 95.2193 51.3391 95.2191ZM84.9858 50.6593C83.1309 50.6593 81.39 49.9364 80.0791 48.6246C78.7683 47.3125 78.0459 45.5685 78.0459 43.7139C78.0459 41.8575 78.7683 40.1133 80.0791 38.8015C82.7008 36.1758 87.2729 36.1758 89.8948 38.7995C91.2056 40.1113 91.9277 41.8553 91.9277 43.7099C91.9277 45.5663 91.2056 47.3105 89.8948 48.6226C88.5835 49.9344 86.8388 50.6593 84.9858 50.6593ZM84.9878 38.7491C83.6634 38.7491 82.4185 39.2666 81.4812 40.2043C81.0193 40.6641 80.6531 41.211 80.4038 41.8134C80.1545 42.4158 80.0272 43.0616 80.0291 43.7136C80.0273 44.3653 80.1548 45.0109 80.404 45.613C80.6533 46.2151 81.0194 46.7617 81.4812 47.2212C83.3518 49.0932 86.6184 49.0952 88.4927 47.2192C88.9547 46.7594 89.321 46.2125 89.5703 45.6101C89.8196 45.0076 89.947 44.3617 89.9451 43.7097C89.9468 43.058 89.8192 42.4124 89.5699 41.8103C89.3206 41.2083 88.9545 40.6616 88.4927 40.2021C88.0335 39.74 87.4873 39.3737 86.8857 39.1243C86.2841 38.8749 85.639 38.7474 84.9878 38.7491ZM70.9665 64.6893C69.1113 64.6893 67.3686 63.9666 66.0595 62.6546C64.7487 61.3427 64.0263 59.5987 64.0263 57.7441C64.0263 55.8878 64.7487 54.1435 66.0595 52.8337C68.6777 50.2137 73.2513 50.2098 75.8732 52.8337C77.184 54.1458 77.9064 55.8897 77.9064 57.7441C77.9064 59.5985 77.184 61.3427 75.8732 62.6546C74.5623 63.9666 72.8194 64.6893 70.9665 64.6893ZM70.9665 52.7831C69.6417 52.7831 68.3969 53.2986 67.4616 54.2366C66.5243 55.1723 66.0092 56.4184 66.0092 57.7441C66.0075 58.3958 66.135 59.0414 66.3843 59.6435C66.6336 60.2455 66.9998 60.7922 67.4616 61.2517C69.3299 63.1256 72.5949 63.1294 74.4711 61.2517C74.9328 60.7921 75.2989 60.2455 75.5482 59.6434C75.7974 59.0414 75.9249 58.3958 75.9233 57.7441C75.9249 57.0924 75.7974 56.4469 75.5482 55.8448C75.2989 55.2427 74.9328 54.6961 74.4711 54.2366C74.012 53.7744 73.4659 53.408 72.8643 53.1585C72.2627 52.909 71.6177 52.7814 70.9665 52.7831ZM108.079 99.2189C107.531 99.2189 107.078 98.777 107.078 98.2265C107.078 97.6803 107.512 97.2345 108.058 97.2345H108.079C108.342 97.235 108.594 97.3397 108.78 97.5256C108.965 97.7116 109.07 97.9636 109.071 98.2265C109.071 98.777 108.625 99.2189 108.079 99.2189ZM30.7437 1.98437C30.1959 1.98437 29.7427 1.54056 29.7427 0.99206C29.7427 0.44381 30.1765 0 30.7224 0H30.7437C31.2898 0 31.7353 0.44381 31.7353 0.99206C31.7353 1.54056 31.2898 1.98437 30.7437 1.98437ZM74.3668 5.9531C73.8187 5.9531 73.3655 5.50929 73.3655 4.96079C73.3655 4.41254 73.7993 3.96873 74.3454 3.96873H74.3668C74.6296 3.96893 74.8816 4.07351 75.0675 4.25952C75.2534 4.44552 75.3579 4.69774 75.3581 4.96079C75.3581 5.50929 74.9129 5.9531 74.3668 5.9531ZM1.00098 29.7655C0.452894 29.7655 0 29.3217 0 28.7732C0 28.225 0.433806 27.7811 0.979658 27.7811H1.00098C1.54708 27.7811 1.99253 28.225 1.99253 28.7732C1.99253 29.3217 1.54708 29.7655 1.00098 29.7655ZM16.8619 83.3439C16.3138 83.3439 15.8607 82.8981 15.8607 82.3519C15.8607 81.8014 16.2945 81.3596 16.8406 81.3596H16.8619C16.9921 81.3595 17.1211 81.3851 17.2414 81.435C17.3617 81.4848 17.471 81.5579 17.5631 81.6501C17.6552 81.7422 17.7282 81.8516 17.778 81.9721C17.8278 82.0925 17.8533 82.2215 17.8532 82.3519C17.8527 82.6148 17.7481 82.8668 17.5623 83.0528C17.3765 83.2387 17.1247 83.3434 16.8619 83.3439ZM66.3344 125.016C65.7863 125.016 65.3332 124.57 65.3332 124.023C65.3332 123.473 65.767 123.031 66.3131 123.031H66.3344C66.8805 123.031 67.326 123.473 67.326 124.023C67.326 124.57 66.8808 125.016 66.3344 125.016ZM114.024 127C113.476 127 113.023 126.558 113.023 126.008C113.023 125.461 113.456 125.016 114.002 125.016H114.024C114.57 125.016 115.015 125.461 115.015 126.008C115.015 126.558 114.57 127 114.024 127ZM92.2163 73.4221C91.6682 73.4221 91.2153 72.9765 91.2153 72.43C91.2153 71.8795 91.6489 71.438 92.195 71.438H92.2163C92.7624 71.438 93.2078 71.8795 93.2078 72.43C93.2073 72.693 93.1027 72.9451 92.9168 73.131C92.731 73.317 92.4791 73.4216 92.2163 73.4221ZM116.009 65.4839C115.461 65.4839 115.007 65.0401 115.007 64.4916C115.007 63.9433 115.441 63.4995 115.987 63.4995H116.009C116.272 63.4997 116.524 63.6043 116.709 63.7903C116.895 63.9763 117 64.2285 117 64.4916C117 65.0401 116.555 65.4839 116.009 65.4839ZM104.111 93.262C103.563 93.262 103.11 92.8202 103.11 92.2697C103.11 91.7235 103.544 91.2777 104.09 91.2777H104.111C104.374 91.2782 104.626 91.3829 104.812 91.5688C104.998 91.7548 105.102 92.0068 105.103 92.2697C105.103 92.82 104.658 93.262 104.111 93.262Z" fill="black"/>
<path d="M109.002 103C103.488 102.996 99.002 98.5088 99 92.9981C99.002 87.4835 103.488 83 109 83C114.514 83 119 87.4837 119 92.9981C119 98.5088 114.516 102.996 109.002 103ZM109 84.9996C104.59 84.9996 101.002 88.5886 101 92.9981C101.002 97.4076 104.592 100.997 109.002 101.001C113.412 100.997 117 97.4076 117 92.9981C117 88.5849 113.412 84.9996 109 84.9996Z" fill="black"/>
<path d="M112.006 92.9992C110.352 92.9992 109.004 91.6515 109.002 89.9997C109.002 88.3435 110.348 87 112 87C113.654 87 115 88.3475 115 89.9997C115.002 90.3926 114.926 90.782 114.776 91.1453C114.627 91.5086 114.407 91.8387 114.129 92.1164C113.851 92.3972 113.521 92.6199 113.156 92.7715C112.792 92.9231 112.401 93.0005 112.006 92.9992ZM111.998 88.9997C111.734 88.9999 111.481 89.1048 111.294 89.2916C111.107 89.4784 111.002 89.7316 111.002 89.9957C111.004 90.558 111.442 90.9995 112.002 90.9995H112.006C112.274 90.9995 112.523 90.894 112.711 90.7065C112.898 90.519 113 90.269 113 90.0035C113 89.7376 112.895 89.4825 112.707 89.2943C112.519 89.1061 112.264 89.0001 111.998 88.9997ZM84.0039 115C83.7387 115 83.4845 114.894 83.2971 114.707C83.1096 114.52 83.0042 114.265 83.004 114L83 105.997C83.0002 105.732 83.1056 105.478 83.2931 105.291C83.4805 105.103 83.7348 104.998 83.9999 104.998C84.5527 104.998 85 105.447 85 105.997L85.004 114C85.0037 114.265 84.8983 114.52 84.7108 114.707C84.5233 114.894 84.269 115 84.0039 115Z" fill="black"/>
<path d="M86.0228 111H82.1138C81.5735 111 81.1364 110.551 81.1364 110C81.1364 109.445 81.5735 109 82.1138 109H86.0228C86.1513 109 86.2784 109.025 86.3971 109.076C86.5158 109.126 86.6236 109.2 86.7144 109.292C86.8052 109.385 86.8771 109.496 86.9261 109.617C86.9752 109.739 87.0003 109.869 87 110C86.9998 110.265 86.8968 110.519 86.7136 110.707C86.5304 110.894 86.2819 111 86.0228 111ZM44.9774 123C44.4371 123 44 122.551 44 122V114C44 113.445 44.4371 113 44.9774 113C45.5176 113 45.9545 113.445 45.9545 114V122C45.9545 122.551 45.5176 123 44.9774 123Z" fill="black"/>
<path d="M47.0108 119H43.0555C42.5086 119 42.0661 118.556 42.0661 118.012C42.0659 117.882 42.0913 117.753 42.141 117.633C42.1906 117.513 42.2635 117.404 42.3554 117.312C42.4473 117.22 42.5565 117.148 42.6767 117.098C42.7968 117.049 42.9256 117.023 43.0555 117.023H47.0108C47.1408 117.023 47.2695 117.049 47.3897 117.098C47.5098 117.148 47.6189 117.22 47.7109 117.312C47.8028 117.404 47.8756 117.513 47.9252 117.633C47.9748 117.753 48.0003 117.882 48 118.012C48 118.556 47.5577 119 47.0108 119ZM20.9894 24.883C20.4425 24.883 20 24.4409 20 23.8946L20.002 15.9882C20.0019 15.8584 20.0275 15.7298 20.0772 15.6099C20.1269 15.4899 20.1998 15.381 20.2916 15.2892C20.3835 15.1974 20.4926 15.1246 20.6127 15.075C20.7328 15.0254 20.8615 14.9999 20.9914 15C21.1213 14.9999 21.25 15.0255 21.37 15.0751C21.4901 15.1247 21.5992 15.1975 21.691 15.2893C21.7829 15.3811 21.8557 15.49 21.9054 15.6099C21.9551 15.7299 21.9807 15.8584 21.9806 15.9882L21.9786 23.8946C21.9786 24.4412 21.5361 24.883 20.9894 24.883Z" fill="black"/>
<path d="M22.9655 21H18.9932C18.4442 21 18 20.5446 18 19.9818C17.9999 19.8481 18.0256 19.7157 18.0755 19.5922C18.1254 19.4686 18.1985 19.3564 18.2908 19.2618C18.383 19.1673 18.4925 19.0923 18.6131 19.0412C18.7336 18.9901 18.8628 18.9639 18.9932 18.964H22.9655C23.0959 18.9639 23.2251 18.9902 23.3456 19.0413C23.4661 19.0924 23.5756 19.1674 23.6678 19.2619C23.76 19.3565 23.8332 19.4687 23.883 19.5922C23.9329 19.7158 23.9586 19.8482 23.9585 19.9818C23.9585 20.5446 23.5143 21 22.9655 21ZM61.0048 18.1802C60.8744 18.1803 60.7452 18.154 60.6247 18.1029C60.5042 18.0518 60.3948 17.9768 60.3025 17.8822C60.2103 17.7877 60.1372 17.6755 60.0873 17.5519C60.0374 17.4284 60.0118 17.296 60.0118 17.1623L60.0138 9.01815C60.0138 8.45537 60.458 8 61.0068 8C61.5558 8 62 8.45537 62 9.01815L61.998 17.1623C61.9981 17.296 61.9724 17.4285 61.9225 17.552C61.8726 17.6756 61.7995 17.7878 61.7072 17.8823C61.615 17.9769 61.5055 18.0518 61.385 18.103C61.2644 18.1541 61.1352 18.1803 61.0048 18.1802Z" fill="black"/>
<path d="M62.9999 13.9615H59.002C58.8707 13.9616 58.7406 13.9363 58.6193 13.887C58.498 13.8378 58.3877 13.7655 58.2949 13.6745C58.202 13.5834 58.1284 13.4753 58.0781 13.3562C58.0279 13.2372 58.0021 13.1097 58.0022 12.9809C58.0022 12.4387 58.4495 12 59.002 12H62.9999C63.5527 12 64 12.4387 64 12.9809C64.0001 13.1097 63.9742 13.2373 63.924 13.3563C63.8738 13.4753 63.8001 13.5835 63.7072 13.6745C63.6143 13.7656 63.5041 13.8378 63.3827 13.8871C63.2613 13.9363 63.1312 13.9616 62.9999 13.9615ZM6.99985 63C6.86851 63.0001 6.73844 62.9747 6.61709 62.9255C6.49574 62.8762 6.38548 62.8039 6.29261 62.7128C6.19975 62.6217 6.12611 62.5136 6.0759 62.3945C6.02569 62.2755 5.9999 62.1479 6 62.0191L6.004 54.173C6.004 53.631 6.45104 53.1921 7.00385 53.1921C7.55665 53.1921 8.00395 53.6308 8.00395 54.173L7.99995 62.0191C7.99995 62.5613 7.55265 63 6.99985 63Z" fill="black"/>
<path d="M9.00016 59H4.99993C4.44708 59 4 58.5658 4 58.0291C4 57.4924 4.44708 57.0582 4.99993 57.0582H9.00016C9.55301 57.0582 10.0001 57.4924 10.0001 58.0291C10.0001 58.5658 9.55301 59 9.00016 59ZM40.9997 41.5259C39.1324 41.5259 37.3746 40.8186 36.0503 39.535C34.7278 38.2513 33.9995 36.5449 33.9975 34.7305C33.9975 32.9159 34.7258 31.2095 36.0483 29.9279C38.6968 27.3587 43.3026 27.3567 45.9471 29.926C47.2716 31.2095 48 32.9159 48 34.7305C48 36.5451 47.2716 38.2515 45.9471 39.535C44.6269 40.8188 42.8691 41.5259 40.9997 41.5259ZM40.9997 29.8767C39.6637 29.8767 38.4078 30.3828 37.4626 31.3005C36.9967 31.7497 36.6273 32.2841 36.3758 32.8729C36.1244 33.4617 35.9959 34.0931 35.9978 34.7305C35.9969 35.3682 36.1261 35.9998 36.3778 36.5888C36.6295 37.1778 36.9989 37.7126 37.4646 38.1624C39.3554 39.9979 42.6465 39.9979 44.5334 38.1624C45.4788 37.2449 46.0001 36.0257 46.0001 34.7305C46.0001 33.4356 45.4788 32.2163 44.5334 31.2986C43.5879 30.3808 42.3337 29.8767 40.9997 29.8767Z" fill="black"/>
<path d="M35.5456 41C35.0648 41 34.6389 40.8662 34.3042 40.5557C34.1211 40.3856 34.013 40.1582 34.0011 39.9179C33.9892 39.6777 34.0745 39.442 34.2401 39.2571C34.4057 39.0722 34.6397 38.9514 34.8963 38.9185C35.1529 38.8855 35.4135 38.9428 35.6269 39.079C36.2921 39.0433 38.6529 37.8794 41.6449 35.1035C44.6385 32.3237 45.8918 30.1298 45.9305 29.5102C45.653 29.1353 45.6914 28.6155 46.0523 28.2823C46.2471 28.1016 46.5112 28 46.7866 28C47.062 28 47.3261 28.1016 47.5209 28.2823C49.6181 30.2296 44.2166 35.4424 43.1133 36.4671C42.1861 37.3277 38.0788 41 35.5456 41Z" fill="black"/>
<path d="M105.008 39C104.878 39.0001 104.749 38.9745 104.628 38.9246C104.508 38.8747 104.399 38.8016 104.307 38.7093L90.2755 24.6784C90.0961 24.491 89.9972 24.2408 90.0001 23.9815C90.0029 23.7221 90.1072 23.4741 90.2906 23.2907C90.474 23.1072 90.7219 23.0029 90.9813 23.0001C91.2407 22.9972 91.4909 23.096 91.6783 23.2754L105.709 37.3063C105.802 37.3984 105.875 37.5077 105.924 37.628C105.974 37.7484 106 37.8774 106 38.0076C106 38.1379 105.974 38.2669 105.924 38.3872C105.875 38.5076 105.802 38.6169 105.709 38.709C105.618 38.8014 105.508 38.8747 105.388 38.9247C105.268 38.9746 105.138 39.0002 105.008 39Z" fill="black"/>
<path d="M46.4962 94C45.2682 94 43.1533 93.0559 39.5493 89.4496C34.2191 84.1208 34.7021 82.0449 35.4656 81.2813C35.6332 81.114 35.8565 81.0144 36.093 81.0014C36.3294 80.9885 36.5623 81.0632 36.7471 81.2113C36.9319 81.3594 37.0557 81.5704 37.0946 81.804C37.1336 82.0376 37.0851 82.2774 36.9583 82.4774C36.9434 82.7068 37.0185 84.1961 40.9104 88.0884C44.7965 91.9766 46.2629 92.0293 46.5224 92.0445C46.7071 91.9275 46.926 91.8768 47.1433 91.9007C47.3606 91.9247 47.5633 92.0218 47.7181 92.1761C47.8986 92.3567 48 92.6016 48 92.8569C48 93.1122 47.8986 93.357 47.7181 93.5376C47.4717 93.7819 47.0863 94 46.4962 94Z" fill="black"/>
<path d="M72.1748 57C72.0664 57.0001 71.9591 56.98 71.8589 56.9407C71.7588 56.9015 71.6679 56.8439 71.5913 56.7713C71.2724 56.4696 70.7274 56.4696 70.4085 56.7713C70.3319 56.8438 70.2409 56.9013 70.1408 56.9405C70.0407 56.9797 69.9334 56.9999 69.8251 56.9999C69.7167 56.9999 69.6095 56.9797 69.5094 56.9405C69.4093 56.9013 69.3183 56.8438 69.2417 56.7713C68.9194 56.468 68.9194 55.9741 69.2417 55.6677C70.1797 54.7774 71.8203 54.7774 72.7583 55.6677C73.0806 55.9741 73.0806 56.468 72.7583 56.7713C72.6818 56.8439 72.5908 56.9015 72.4907 56.9407C72.3905 56.98 72.2832 57.0001 72.1748 57Z" fill="black"/>
<path d="M86.1723 43C86.0636 43.0001 85.956 42.9801 85.8555 42.9413C85.7551 42.9025 85.6639 42.8456 85.5871 42.7738C85.4295 42.6274 85.2161 42.5452 84.9937 42.5452C84.7713 42.5452 84.558 42.6274 84.4003 42.7738C84.244 42.9135 84.0352 42.9904 83.8188 42.9882C83.6024 42.986 83.3955 42.9047 83.2424 42.7619C83.0894 42.6191 83.0024 42.426 83 42.224C82.9977 42.022 83.0802 41.8272 83.2299 41.6813C84.2031 40.7729 85.7846 40.7729 86.7578 41.6813C86.8735 41.7894 86.9523 41.927 86.9841 42.0769C87.016 42.2267 86.9996 42.382 86.9369 42.5231C86.8743 42.6643 86.7682 42.7849 86.6321 42.8698C86.496 42.9546 86.336 43 86.1723 43Z" fill="black"/>
</svg>
